<mxfile host="app.diagrams.net" modified="2022-09-24T05:36:40.999Z" agent="5.0 (Windows NT 10.0; Win64; x64) AppleWebKit/537.36 (KHTML, like Gecko) Chrome/100.0.4896.60 Safari/537.36" etag="-kvkULCrKRyR1xkeDExE" version="20.3.6" type="github">
  <diagram id="Gqi-A1hakrR0TnXfPavF" name="第 1 页">
    <mxGraphModel dx="1422" dy="800" grid="1" gridSize="10" guides="1" tooltips="1" connect="1" arrows="1" fold="1" page="1" pageScale="1" pageWidth="827" pageHeight="1169" math="0" shadow="0">
      <root>
        <mxCell id="0" />
        <mxCell id="1" parent="0" />
        <mxCell id="WUNCd0-92xWAUX9Z6t9p-1" value="&lt;font style=&quot;vertical-align: inherit;&quot;&gt;&lt;font style=&quot;vertical-align: inherit;&quot;&gt;RV31I&lt;/font&gt;&lt;/font&gt;" style="text;html=1;align=center;verticalAlign=middle;resizable=0;points=[];autosize=1;strokeColor=none;fillColor=none;" vertex="1" parent="1">
          <mxGeometry x="210" y="90" width="60" height="30" as="geometry" />
        </mxCell>
        <mxCell id="WUNCd0-92xWAUX9Z6t9p-2" value="&lt;font style=&quot;vertical-align: inherit;&quot;&gt;&lt;font style=&quot;vertical-align: inherit;&quot;&gt;算术逻辑指令&lt;/font&gt;&lt;/font&gt;" style="rounded=0;whiteSpace=wrap;html=1;fillColor=#d5e8d4;strokeColor=#82b366;" vertex="1" parent="1">
          <mxGeometry x="120" y="160" width="120" height="40" as="geometry" />
        </mxCell>
        <mxCell id="WUNCd0-92xWAUX9Z6t9p-9" value="&lt;u&gt;&lt;b&gt;sub&lt;/b&gt;&lt;/u&gt;tract" style="text;html=1;align=center;verticalAlign=middle;resizable=0;points=[];autosize=1;strokeColor=none;fillColor=none;" vertex="1" parent="1">
          <mxGeometry x="70" y="280" width="70" height="30" as="geometry" />
        </mxCell>
        <mxCell id="WUNCd0-92xWAUX9Z6t9p-14" value="" style="group" vertex="1" connectable="0" parent="1">
          <mxGeometry x="80" y="235" width="160" height="45" as="geometry" />
        </mxCell>
        <mxCell id="WUNCd0-92xWAUX9Z6t9p-3" value="&lt;u&gt;&lt;b&gt;add&lt;/b&gt;&lt;/u&gt;" style="text;html=1;align=center;verticalAlign=middle;resizable=0;points=[];autosize=1;strokeColor=none;fillColor=none;" vertex="1" parent="WUNCd0-92xWAUX9Z6t9p-14">
          <mxGeometry y="15" width="40" height="30" as="geometry" />
        </mxCell>
        <mxCell id="WUNCd0-92xWAUX9Z6t9p-4" value="" style="shape=curlyBracket;whiteSpace=wrap;html=1;rounded=1;" vertex="1" parent="WUNCd0-92xWAUX9Z6t9p-14">
          <mxGeometry x="40" y="5" width="20" height="40" as="geometry" />
        </mxCell>
        <mxCell id="WUNCd0-92xWAUX9Z6t9p-5" value="-" style="text;html=1;align=center;verticalAlign=middle;resizable=0;points=[];autosize=1;strokeColor=none;fillColor=none;" vertex="1" parent="WUNCd0-92xWAUX9Z6t9p-14">
          <mxGeometry x="55" width="30" height="30" as="geometry" />
        </mxCell>
        <mxCell id="WUNCd0-92xWAUX9Z6t9p-6" value="&lt;u&gt;i&lt;/u&gt;mmediate" style="text;html=1;align=center;verticalAlign=middle;resizable=0;points=[];autosize=1;strokeColor=none;fillColor=none;" vertex="1" parent="WUNCd0-92xWAUX9Z6t9p-14">
          <mxGeometry x="55" y="15" width="80" height="30" as="geometry" />
        </mxCell>
        <mxCell id="WUNCd0-92xWAUX9Z6t9p-8" value="" style="shape=curlyBracket;whiteSpace=wrap;html=1;rounded=1;direction=west;" vertex="1" parent="WUNCd0-92xWAUX9Z6t9p-14">
          <mxGeometry x="140" y="5" width="20" height="40" as="geometry" />
        </mxCell>
        <mxCell id="WUNCd0-92xWAUX9Z6t9p-11" value="&lt;b&gt;&lt;u&gt;and&lt;/u&gt;&lt;/b&gt;" style="text;html=1;align=center;verticalAlign=middle;resizable=0;points=[];autosize=1;strokeColor=none;fillColor=none;" vertex="1" parent="1">
          <mxGeometry x="110" y="316" width="40" height="30" as="geometry" />
        </mxCell>
        <mxCell id="WUNCd0-92xWAUX9Z6t9p-36" value="" style="group" vertex="1" connectable="0" parent="1">
          <mxGeometry x="95" y="322" width="235" height="78" as="geometry" />
        </mxCell>
        <mxCell id="WUNCd0-92xWAUX9Z6t9p-10" value="" style="shape=curlyBracket;whiteSpace=wrap;html=1;rounded=1;" vertex="1" parent="WUNCd0-92xWAUX9Z6t9p-36">
          <mxGeometry width="20" height="69" as="geometry" />
        </mxCell>
        <mxCell id="WUNCd0-92xWAUX9Z6t9p-12" value="&lt;b&gt;&lt;u&gt;or&lt;/u&gt;&lt;/b&gt;" style="text;html=1;align=center;verticalAlign=middle;resizable=0;points=[];autosize=1;strokeColor=none;fillColor=none;" vertex="1" parent="WUNCd0-92xWAUX9Z6t9p-36">
          <mxGeometry x="15" y="24" width="40" height="30" as="geometry" />
        </mxCell>
        <mxCell id="WUNCd0-92xWAUX9Z6t9p-13" value="e&lt;b&gt;x&lt;/b&gt;ciusive &lt;u style=&quot;font-weight: bold;&quot;&gt;or&lt;/u&gt;" style="text;html=1;align=center;verticalAlign=middle;resizable=0;points=[];autosize=1;strokeColor=none;fillColor=none;" vertex="1" parent="WUNCd0-92xWAUX9Z6t9p-36">
          <mxGeometry x="10" y="48" width="90" height="30" as="geometry" />
        </mxCell>
        <mxCell id="WUNCd0-92xWAUX9Z6t9p-21" value="" style="shape=curlyBracket;whiteSpace=wrap;html=1;rounded=1;direction=west;" vertex="1" parent="WUNCd0-92xWAUX9Z6t9p-36">
          <mxGeometry x="95" width="20" height="69" as="geometry" />
        </mxCell>
        <mxCell id="WUNCd0-92xWAUX9Z6t9p-22" value="" style="group" vertex="1" connectable="0" parent="WUNCd0-92xWAUX9Z6t9p-36">
          <mxGeometry x="115" y="10" width="120" height="45" as="geometry" />
        </mxCell>
        <mxCell id="WUNCd0-92xWAUX9Z6t9p-17" value="" style="shape=curlyBracket;whiteSpace=wrap;html=1;rounded=1;" vertex="1" parent="WUNCd0-92xWAUX9Z6t9p-22">
          <mxGeometry y="5" width="20" height="40" as="geometry" />
        </mxCell>
        <mxCell id="WUNCd0-92xWAUX9Z6t9p-18" value="-" style="text;html=1;align=center;verticalAlign=middle;resizable=0;points=[];autosize=1;strokeColor=none;fillColor=none;" vertex="1" parent="WUNCd0-92xWAUX9Z6t9p-22">
          <mxGeometry x="15" width="30" height="30" as="geometry" />
        </mxCell>
        <mxCell id="WUNCd0-92xWAUX9Z6t9p-19" value="&lt;u&gt;i&lt;/u&gt;mmediate" style="text;html=1;align=center;verticalAlign=middle;resizable=0;points=[];autosize=1;strokeColor=none;fillColor=none;" vertex="1" parent="WUNCd0-92xWAUX9Z6t9p-22">
          <mxGeometry x="15" y="15" width="80" height="30" as="geometry" />
        </mxCell>
        <mxCell id="WUNCd0-92xWAUX9Z6t9p-20" value="" style="shape=curlyBracket;whiteSpace=wrap;html=1;rounded=1;direction=west;" vertex="1" parent="WUNCd0-92xWAUX9Z6t9p-22">
          <mxGeometry x="100" y="5" width="20" height="40" as="geometry" />
        </mxCell>
        <mxCell id="WUNCd0-92xWAUX9Z6t9p-39" value="&lt;b&gt;&lt;u&gt;l&lt;/u&gt;&lt;/b&gt;oad &lt;b&gt;&lt;u&gt;u&lt;/u&gt;&lt;/b&gt;pper &lt;u&gt;&lt;b&gt;i&lt;/b&gt;&lt;/u&gt;mmediate" style="text;html=1;align=center;verticalAlign=middle;resizable=0;points=[];autosize=1;strokeColor=none;fillColor=none;" vertex="1" parent="1">
          <mxGeometry x="70" y="520" width="140" height="30" as="geometry" />
        </mxCell>
        <mxCell id="WUNCd0-92xWAUX9Z6t9p-40" value="&lt;b&gt;&lt;u&gt;a&lt;/u&gt;&lt;/b&gt;dd &lt;b&gt;&lt;u&gt;u&lt;/u&gt;&lt;/b&gt;pper &lt;u&gt;&lt;b&gt;i&lt;/b&gt;&lt;/u&gt;mmediate to &lt;u&gt;&lt;b&gt;pc&lt;/b&gt;&lt;/u&gt;" style="text;html=1;align=center;verticalAlign=middle;resizable=0;points=[];autosize=1;strokeColor=none;fillColor=none;" vertex="1" parent="1">
          <mxGeometry x="70" y="550" width="170" height="30" as="geometry" />
        </mxCell>
        <mxCell id="WUNCd0-92xWAUX9Z6t9p-41" value="&lt;b&gt;&lt;u&gt;s&lt;/u&gt;&lt;/b&gt;et &lt;u&gt;&lt;b&gt;l&lt;/b&gt;&lt;/u&gt;ess &lt;u&gt;&lt;b&gt;t&lt;/b&gt;&lt;/u&gt;han" style="text;html=1;align=center;verticalAlign=middle;resizable=0;points=[];autosize=1;strokeColor=none;fillColor=none;" vertex="1" parent="1">
          <mxGeometry x="70" y="595" width="90" height="30" as="geometry" />
        </mxCell>
        <mxCell id="WUNCd0-92xWAUX9Z6t9p-35" value="&lt;b&gt;&lt;u&gt;s&lt;/u&gt;&lt;/b&gt;hift &lt;u style=&quot;font-weight: bold;&quot;&gt;r&lt;/u&gt;ight&amp;nbsp;&lt;b&gt;&lt;u&gt;l&lt;/u&gt;&lt;/b&gt;ogical" style="text;html=1;align=center;verticalAlign=middle;resizable=0;points=[];autosize=1;strokeColor=none;fillColor=none;" vertex="1" parent="1">
          <mxGeometry x="105" y="474" width="110" height="30" as="geometry" />
        </mxCell>
        <mxCell id="WUNCd0-92xWAUX9Z6t9p-42" value="" style="group" vertex="1" connectable="0" parent="1">
          <mxGeometry x="160" y="580" width="120" height="45" as="geometry" />
        </mxCell>
        <mxCell id="WUNCd0-92xWAUX9Z6t9p-43" value="" style="shape=curlyBracket;whiteSpace=wrap;html=1;rounded=1;" vertex="1" parent="WUNCd0-92xWAUX9Z6t9p-42">
          <mxGeometry y="5" width="20" height="40" as="geometry" />
        </mxCell>
        <mxCell id="WUNCd0-92xWAUX9Z6t9p-44" value="-" style="text;html=1;align=center;verticalAlign=middle;resizable=0;points=[];autosize=1;strokeColor=none;fillColor=none;" vertex="1" parent="WUNCd0-92xWAUX9Z6t9p-42">
          <mxGeometry x="15" width="30" height="30" as="geometry" />
        </mxCell>
        <mxCell id="WUNCd0-92xWAUX9Z6t9p-45" value="&lt;u&gt;i&lt;/u&gt;mmediate" style="text;html=1;align=center;verticalAlign=middle;resizable=0;points=[];autosize=1;strokeColor=none;fillColor=none;" vertex="1" parent="WUNCd0-92xWAUX9Z6t9p-42">
          <mxGeometry x="15" y="15" width="80" height="30" as="geometry" />
        </mxCell>
        <mxCell id="WUNCd0-92xWAUX9Z6t9p-46" value="" style="shape=curlyBracket;whiteSpace=wrap;html=1;rounded=1;direction=west;" vertex="1" parent="WUNCd0-92xWAUX9Z6t9p-42">
          <mxGeometry x="100" y="5" width="20" height="40" as="geometry" />
        </mxCell>
        <mxCell id="WUNCd0-92xWAUX9Z6t9p-47" value="" style="group" vertex="1" connectable="0" parent="1">
          <mxGeometry x="282" y="580" width="120" height="45" as="geometry" />
        </mxCell>
        <mxCell id="WUNCd0-92xWAUX9Z6t9p-48" value="" style="shape=curlyBracket;whiteSpace=wrap;html=1;rounded=1;" vertex="1" parent="WUNCd0-92xWAUX9Z6t9p-47">
          <mxGeometry y="5" width="20" height="40" as="geometry" />
        </mxCell>
        <mxCell id="WUNCd0-92xWAUX9Z6t9p-49" value="-" style="text;html=1;align=center;verticalAlign=middle;resizable=0;points=[];autosize=1;strokeColor=none;fillColor=none;" vertex="1" parent="WUNCd0-92xWAUX9Z6t9p-47">
          <mxGeometry x="15" width="30" height="30" as="geometry" />
        </mxCell>
        <mxCell id="WUNCd0-92xWAUX9Z6t9p-50" value="&lt;u&gt;&lt;b&gt;u&lt;/b&gt;&lt;/u&gt;nsigned" style="text;html=1;align=center;verticalAlign=middle;resizable=0;points=[];autosize=1;strokeColor=none;fillColor=none;" vertex="1" parent="WUNCd0-92xWAUX9Z6t9p-47">
          <mxGeometry x="20" y="15" width="70" height="30" as="geometry" />
        </mxCell>
        <mxCell id="WUNCd0-92xWAUX9Z6t9p-51" value="" style="shape=curlyBracket;whiteSpace=wrap;html=1;rounded=1;direction=west;" vertex="1" parent="WUNCd0-92xWAUX9Z6t9p-47">
          <mxGeometry x="100" y="5" width="20" height="40" as="geometry" />
        </mxCell>
        <mxCell id="WUNCd0-92xWAUX9Z6t9p-53" value="内存读写指令" style="rounded=0;whiteSpace=wrap;html=1;fillColor=#d5e8d4;strokeColor=#82b366;" vertex="1" parent="1">
          <mxGeometry x="520" y="160" width="120" height="40" as="geometry" />
        </mxCell>
        <mxCell id="WUNCd0-92xWAUX9Z6t9p-59" value="" style="shape=curlyBracket;whiteSpace=wrap;html=1;rounded=1;direction=west;" vertex="1" parent="1">
          <mxGeometry x="521" y="262" width="20" height="40" as="geometry" />
        </mxCell>
        <mxCell id="WUNCd0-92xWAUX9Z6t9p-60" value="" style="group" vertex="1" connectable="0" parent="1">
          <mxGeometry x="459" y="256" width="69" height="51" as="geometry" />
        </mxCell>
        <mxCell id="WUNCd0-92xWAUX9Z6t9p-56" value="" style="shape=curlyBracket;whiteSpace=wrap;html=1;rounded=1;" vertex="1" parent="WUNCd0-92xWAUX9Z6t9p-60">
          <mxGeometry y="6" width="20" height="40" as="geometry" />
        </mxCell>
        <mxCell id="WUNCd0-92xWAUX9Z6t9p-57" value="&lt;b&gt;&lt;u&gt;l&lt;/u&gt;&lt;/b&gt;oad" style="text;html=1;align=center;verticalAlign=middle;resizable=0;points=[];autosize=1;strokeColor=none;fillColor=none;" vertex="1" parent="WUNCd0-92xWAUX9Z6t9p-60">
          <mxGeometry x="15" width="50" height="30" as="geometry" />
        </mxCell>
        <mxCell id="WUNCd0-92xWAUX9Z6t9p-58" value="&lt;b&gt;&lt;u&gt;s&lt;/u&gt;&lt;/b&gt;tore" style="text;html=1;align=center;verticalAlign=middle;resizable=0;points=[];autosize=1;strokeColor=none;fillColor=none;" vertex="1" parent="WUNCd0-92xWAUX9Z6t9p-60">
          <mxGeometry x="19" y="21" width="50" height="30" as="geometry" />
        </mxCell>
        <mxCell id="WUNCd0-92xWAUX9Z6t9p-68" value="" style="group" vertex="1" connectable="0" parent="1">
          <mxGeometry x="90" y="415" width="282" height="82" as="geometry" />
        </mxCell>
        <mxCell id="WUNCd0-92xWAUX9Z6t9p-25" value="" style="shape=curlyBracket;whiteSpace=wrap;html=1;rounded=1;" vertex="1" parent="WUNCd0-92xWAUX9Z6t9p-68">
          <mxGeometry y="2" width="20" height="80" as="geometry" />
        </mxCell>
        <mxCell id="WUNCd0-92xWAUX9Z6t9p-26" value="&lt;b&gt;&lt;u&gt;s&lt;/u&gt;&lt;/b&gt;hift &lt;u&gt;&lt;b&gt;l&lt;/b&gt;&lt;/u&gt;eft &lt;b&gt;&lt;u&gt;l&lt;/u&gt;&lt;/b&gt;ogical" style="text;html=1;align=center;verticalAlign=middle;resizable=0;points=[];autosize=1;strokeColor=none;fillColor=none;" vertex="1" parent="WUNCd0-92xWAUX9Z6t9p-68">
          <mxGeometry x="15" width="100" height="30" as="geometry" />
        </mxCell>
        <mxCell id="WUNCd0-92xWAUX9Z6t9p-27" value="&lt;u&gt;s&lt;/u&gt;hift &lt;u&gt;&lt;b&gt;r&lt;/b&gt;&lt;/u&gt;ight &lt;b&gt;&lt;u&gt;a&lt;/u&gt;&lt;/b&gt;rithmetic" style="text;html=1;align=center;verticalAlign=middle;resizable=0;points=[];autosize=1;strokeColor=none;fillColor=none;" vertex="1" parent="WUNCd0-92xWAUX9Z6t9p-68">
          <mxGeometry x="15" y="27.5" width="130" height="30" as="geometry" />
        </mxCell>
        <mxCell id="WUNCd0-92xWAUX9Z6t9p-29" value="" style="shape=curlyBracket;whiteSpace=wrap;html=1;rounded=1;direction=west;" vertex="1" parent="WUNCd0-92xWAUX9Z6t9p-68">
          <mxGeometry x="140" y="2" width="20" height="80" as="geometry" />
        </mxCell>
        <mxCell id="WUNCd0-92xWAUX9Z6t9p-30" value="" style="group" vertex="1" connectable="0" parent="WUNCd0-92xWAUX9Z6t9p-68">
          <mxGeometry x="162" y="17" width="120" height="45" as="geometry" />
        </mxCell>
        <mxCell id="WUNCd0-92xWAUX9Z6t9p-31" value="" style="shape=curlyBracket;whiteSpace=wrap;html=1;rounded=1;" vertex="1" parent="WUNCd0-92xWAUX9Z6t9p-30">
          <mxGeometry y="5" width="20" height="40" as="geometry" />
        </mxCell>
        <mxCell id="WUNCd0-92xWAUX9Z6t9p-32" value="-" style="text;html=1;align=center;verticalAlign=middle;resizable=0;points=[];autosize=1;strokeColor=none;fillColor=none;" vertex="1" parent="WUNCd0-92xWAUX9Z6t9p-30">
          <mxGeometry x="15" width="30" height="30" as="geometry" />
        </mxCell>
        <mxCell id="WUNCd0-92xWAUX9Z6t9p-33" value="&lt;u&gt;i&lt;/u&gt;mmediate" style="text;html=1;align=center;verticalAlign=middle;resizable=0;points=[];autosize=1;strokeColor=none;fillColor=none;" vertex="1" parent="WUNCd0-92xWAUX9Z6t9p-30">
          <mxGeometry x="15" y="15" width="80" height="30" as="geometry" />
        </mxCell>
        <mxCell id="WUNCd0-92xWAUX9Z6t9p-34" value="" style="shape=curlyBracket;whiteSpace=wrap;html=1;rounded=1;direction=west;" vertex="1" parent="WUNCd0-92xWAUX9Z6t9p-30">
          <mxGeometry x="100" y="5" width="20" height="40" as="geometry" />
        </mxCell>
        <mxCell id="WUNCd0-92xWAUX9Z6t9p-71" value="" style="group" vertex="1" connectable="0" parent="1">
          <mxGeometry x="540" y="240" width="98" height="89" as="geometry" />
        </mxCell>
        <mxCell id="WUNCd0-92xWAUX9Z6t9p-64" value="" style="shape=curlyBracket;whiteSpace=wrap;html=1;rounded=1;" vertex="1" parent="WUNCd0-92xWAUX9Z6t9p-71">
          <mxGeometry y="2" width="20" height="80" as="geometry" />
        </mxCell>
        <mxCell id="WUNCd0-92xWAUX9Z6t9p-63" value="&lt;u&gt;&lt;b&gt;w&lt;/b&gt;&lt;/u&gt;ord" style="text;html=1;align=center;verticalAlign=middle;resizable=0;points=[];autosize=1;strokeColor=none;fillColor=none;" vertex="1" parent="WUNCd0-92xWAUX9Z6t9p-71">
          <mxGeometry x="17" y="59" width="50" height="30" as="geometry" />
        </mxCell>
        <mxCell id="WUNCd0-92xWAUX9Z6t9p-65" value="&lt;u&gt;&lt;b&gt;b&lt;/b&gt;&lt;/u&gt;yte" style="text;html=1;align=center;verticalAlign=middle;resizable=0;points=[];autosize=1;strokeColor=none;fillColor=none;" vertex="1" parent="WUNCd0-92xWAUX9Z6t9p-71">
          <mxGeometry x="11" width="50" height="30" as="geometry" />
        </mxCell>
        <mxCell id="WUNCd0-92xWAUX9Z6t9p-66" value="&lt;u&gt;&lt;b&gt;h&lt;/b&gt;&lt;/u&gt;alfword" style="text;html=1;align=center;verticalAlign=middle;resizable=0;points=[];autosize=1;strokeColor=none;fillColor=none;" vertex="1" parent="WUNCd0-92xWAUX9Z6t9p-71">
          <mxGeometry x="14" y="27.5" width="70" height="30" as="geometry" />
        </mxCell>
        <mxCell id="WUNCd0-92xWAUX9Z6t9p-67" value="" style="shape=curlyBracket;whiteSpace=wrap;html=1;rounded=1;direction=west;" vertex="1" parent="WUNCd0-92xWAUX9Z6t9p-71">
          <mxGeometry x="78" y="2" width="20" height="80" as="geometry" />
        </mxCell>
        <mxCell id="WUNCd0-92xWAUX9Z6t9p-79" value="" style="group" vertex="1" connectable="0" parent="1">
          <mxGeometry x="470" y="430.5" width="209" height="51" as="geometry" />
        </mxCell>
        <mxCell id="WUNCd0-92xWAUX9Z6t9p-76" value="&lt;u&gt;&lt;b&gt;l&lt;/b&gt;&lt;/u&gt;oad" style="text;html=1;align=center;verticalAlign=middle;resizable=0;points=[];autosize=1;strokeColor=none;fillColor=none;" vertex="1" parent="WUNCd0-92xWAUX9Z6t9p-79">
          <mxGeometry y="10.5" width="50" height="30" as="geometry" />
        </mxCell>
        <mxCell id="WUNCd0-92xWAUX9Z6t9p-73" value="" style="shape=curlyBracket;whiteSpace=wrap;html=1;rounded=1;" vertex="1" parent="WUNCd0-92xWAUX9Z6t9p-79">
          <mxGeometry x="46" y="6" width="20" height="40" as="geometry" />
        </mxCell>
        <mxCell id="WUNCd0-92xWAUX9Z6t9p-74" value="&lt;b&gt;&lt;u&gt;b&lt;/u&gt;&lt;/b&gt;yte" style="text;html=1;align=center;verticalAlign=middle;resizable=0;points=[];autosize=1;strokeColor=none;fillColor=none;" vertex="1" parent="WUNCd0-92xWAUX9Z6t9p-79">
          <mxGeometry x="61" width="50" height="30" as="geometry" />
        </mxCell>
        <mxCell id="WUNCd0-92xWAUX9Z6t9p-75" value="&lt;u&gt;&lt;b&gt;h&lt;/b&gt;&lt;/u&gt;alfword" style="text;html=1;align=center;verticalAlign=middle;resizable=0;points=[];autosize=1;strokeColor=none;fillColor=none;rotation=0;" vertex="1" parent="WUNCd0-92xWAUX9Z6t9p-79">
          <mxGeometry x="55" y="21" width="70" height="30" as="geometry" />
        </mxCell>
        <mxCell id="WUNCd0-92xWAUX9Z6t9p-77" value="" style="shape=curlyBracket;whiteSpace=wrap;html=1;rounded=1;direction=west;" vertex="1" parent="WUNCd0-92xWAUX9Z6t9p-79">
          <mxGeometry x="114" y="5.5" width="20" height="40" as="geometry" />
        </mxCell>
        <mxCell id="WUNCd0-92xWAUX9Z6t9p-78" value="&lt;u&gt;u&lt;/u&gt;nsigned" style="text;html=1;align=center;verticalAlign=middle;resizable=0;points=[];autosize=1;strokeColor=none;fillColor=none;" vertex="1" parent="WUNCd0-92xWAUX9Z6t9p-79">
          <mxGeometry x="139" y="11" width="70" height="30" as="geometry" />
        </mxCell>
        <mxCell id="WUNCd0-92xWAUX9Z6t9p-80" value="分支调转指令" style="rounded=0;whiteSpace=wrap;html=1;fillColor=#d5e8d4;strokeColor=#82b366;" vertex="1" parent="1">
          <mxGeometry x="120" y="670" width="120" height="40" as="geometry" />
        </mxCell>
        <mxCell id="WUNCd0-92xWAUX9Z6t9p-88" value="" style="group" vertex="1" connectable="0" parent="1">
          <mxGeometry x="50" y="760" width="139" height="51" as="geometry" />
        </mxCell>
        <mxCell id="WUNCd0-92xWAUX9Z6t9p-82" value="&lt;u&gt;&lt;b&gt;b&lt;/b&gt;&lt;/u&gt;ranch" style="text;html=1;align=center;verticalAlign=middle;resizable=0;points=[];autosize=1;strokeColor=none;fillColor=none;" vertex="1" parent="WUNCd0-92xWAUX9Z6t9p-88">
          <mxGeometry y="10.5" width="60" height="30" as="geometry" />
        </mxCell>
        <mxCell id="WUNCd0-92xWAUX9Z6t9p-83" value="" style="shape=curlyBracket;whiteSpace=wrap;html=1;rounded=1;" vertex="1" parent="WUNCd0-92xWAUX9Z6t9p-88">
          <mxGeometry x="51" y="6" width="20" height="40" as="geometry" />
        </mxCell>
        <mxCell id="WUNCd0-92xWAUX9Z6t9p-84" value="&lt;b&gt;&lt;u&gt;e&lt;/u&gt;&lt;/b&gt;qual" style="text;html=1;align=center;verticalAlign=middle;resizable=0;points=[];autosize=1;strokeColor=none;fillColor=none;" vertex="1" parent="WUNCd0-92xWAUX9Z6t9p-88">
          <mxGeometry x="66" width="50" height="30" as="geometry" />
        </mxCell>
        <mxCell id="WUNCd0-92xWAUX9Z6t9p-85" value="&lt;b&gt;&lt;u&gt;n&lt;/u&gt;&lt;/b&gt;ot &lt;b&gt;&lt;u&gt;e&lt;/u&gt;&lt;/b&gt;qual" style="text;html=1;align=center;verticalAlign=middle;resizable=0;points=[];autosize=1;strokeColor=none;fillColor=none;rotation=0;" vertex="1" parent="WUNCd0-92xWAUX9Z6t9p-88">
          <mxGeometry x="60" y="21" width="70" height="30" as="geometry" />
        </mxCell>
        <mxCell id="WUNCd0-92xWAUX9Z6t9p-86" value="" style="shape=curlyBracket;whiteSpace=wrap;html=1;rounded=1;direction=west;" vertex="1" parent="WUNCd0-92xWAUX9Z6t9p-88">
          <mxGeometry x="119" y="5.5" width="20" height="40" as="geometry" />
        </mxCell>
        <mxCell id="WUNCd0-92xWAUX9Z6t9p-105" value="" style="group" vertex="1" connectable="0" parent="1">
          <mxGeometry x="50" y="823" width="333" height="51" as="geometry" />
        </mxCell>
        <mxCell id="WUNCd0-92xWAUX9Z6t9p-89" value="&lt;b&gt;&lt;u&gt;b&lt;/u&gt;&lt;/b&gt;ranch" style="text;html=1;align=center;verticalAlign=middle;resizable=0;points=[];autosize=1;strokeColor=none;fillColor=none;" vertex="1" parent="WUNCd0-92xWAUX9Z6t9p-105">
          <mxGeometry y="12" width="60" height="30" as="geometry" />
        </mxCell>
        <mxCell id="WUNCd0-92xWAUX9Z6t9p-95" value="" style="group" vertex="1" connectable="0" parent="WUNCd0-92xWAUX9Z6t9p-105">
          <mxGeometry x="213" width="120" height="45" as="geometry" />
        </mxCell>
        <mxCell id="WUNCd0-92xWAUX9Z6t9p-96" value="" style="shape=curlyBracket;whiteSpace=wrap;html=1;rounded=1;" vertex="1" parent="WUNCd0-92xWAUX9Z6t9p-95">
          <mxGeometry y="5" width="20" height="40" as="geometry" />
        </mxCell>
        <mxCell id="WUNCd0-92xWAUX9Z6t9p-97" value="-" style="text;html=1;align=center;verticalAlign=middle;resizable=0;points=[];autosize=1;strokeColor=none;fillColor=none;" vertex="1" parent="WUNCd0-92xWAUX9Z6t9p-95">
          <mxGeometry x="15" width="30" height="30" as="geometry" />
        </mxCell>
        <mxCell id="WUNCd0-92xWAUX9Z6t9p-98" value="&lt;u&gt;&lt;b&gt;u&lt;/b&gt;&lt;/u&gt;nsigned" style="text;html=1;align=center;verticalAlign=middle;resizable=0;points=[];autosize=1;strokeColor=none;fillColor=none;" vertex="1" parent="WUNCd0-92xWAUX9Z6t9p-95">
          <mxGeometry x="20" y="15" width="70" height="30" as="geometry" />
        </mxCell>
        <mxCell id="WUNCd0-92xWAUX9Z6t9p-99" value="" style="shape=curlyBracket;whiteSpace=wrap;html=1;rounded=1;direction=west;" vertex="1" parent="WUNCd0-92xWAUX9Z6t9p-95">
          <mxGeometry x="100" y="5" width="20" height="40" as="geometry" />
        </mxCell>
        <mxCell id="WUNCd0-92xWAUX9Z6t9p-91" value="" style="shape=curlyBracket;whiteSpace=wrap;html=1;rounded=1;" vertex="1" parent="WUNCd0-92xWAUX9Z6t9p-105">
          <mxGeometry x="53" y="5" width="20" height="40" as="geometry" />
        </mxCell>
        <mxCell id="WUNCd0-92xWAUX9Z6t9p-92" value="&lt;u&gt;&lt;b&gt;g&lt;/b&gt;&lt;/u&gt;reater than or &lt;u&gt;e&lt;/u&gt;qual" style="text;html=1;align=center;verticalAlign=middle;resizable=0;points=[];autosize=1;strokeColor=none;fillColor=none;" vertex="1" parent="WUNCd0-92xWAUX9Z6t9p-105">
          <mxGeometry x="66" width="140" height="30" as="geometry" />
        </mxCell>
        <mxCell id="WUNCd0-92xWAUX9Z6t9p-93" value="&lt;u&gt;&lt;b&gt;l&lt;/b&gt;&lt;/u&gt;ess &lt;u&gt;&lt;b&gt;t&lt;/b&gt;&lt;/u&gt;han" style="text;html=1;align=center;verticalAlign=middle;resizable=0;points=[];autosize=1;strokeColor=none;fillColor=none;" vertex="1" parent="WUNCd0-92xWAUX9Z6t9p-105">
          <mxGeometry x="73" y="21" width="70" height="30" as="geometry" />
        </mxCell>
        <mxCell id="WUNCd0-92xWAUX9Z6t9p-94" value="" style="shape=curlyBracket;whiteSpace=wrap;html=1;rounded=1;direction=west;" vertex="1" parent="WUNCd0-92xWAUX9Z6t9p-105">
          <mxGeometry x="194" y="5" width="20" height="40" as="geometry" />
        </mxCell>
        <mxCell id="WUNCd0-92xWAUX9Z6t9p-107" value="" style="group" vertex="1" connectable="0" parent="1">
          <mxGeometry x="60" y="950" width="213" height="45" as="geometry" />
        </mxCell>
        <mxCell id="WUNCd0-92xWAUX9Z6t9p-100" value="" style="group" vertex="1" connectable="0" parent="WUNCd0-92xWAUX9Z6t9p-107">
          <mxGeometry x="93" width="120" height="45" as="geometry" />
        </mxCell>
        <mxCell id="WUNCd0-92xWAUX9Z6t9p-101" value="" style="shape=curlyBracket;whiteSpace=wrap;html=1;rounded=1;" vertex="1" parent="WUNCd0-92xWAUX9Z6t9p-100">
          <mxGeometry y="5" width="20" height="40" as="geometry" />
        </mxCell>
        <mxCell id="WUNCd0-92xWAUX9Z6t9p-102" value="-" style="text;html=1;align=center;verticalAlign=middle;resizable=0;points=[];autosize=1;strokeColor=none;fillColor=none;" vertex="1" parent="WUNCd0-92xWAUX9Z6t9p-100">
          <mxGeometry x="15" width="30" height="30" as="geometry" />
        </mxCell>
        <mxCell id="WUNCd0-92xWAUX9Z6t9p-103" value="&lt;b&gt;&lt;u&gt;r&lt;/u&gt;&lt;/b&gt;egister" style="text;html=1;align=center;verticalAlign=middle;resizable=0;points=[];autosize=1;strokeColor=none;fillColor=none;" vertex="1" parent="WUNCd0-92xWAUX9Z6t9p-100">
          <mxGeometry x="25" y="15" width="60" height="30" as="geometry" />
        </mxCell>
        <mxCell id="WUNCd0-92xWAUX9Z6t9p-104" value="" style="shape=curlyBracket;whiteSpace=wrap;html=1;rounded=1;direction=west;" vertex="1" parent="WUNCd0-92xWAUX9Z6t9p-100">
          <mxGeometry x="100" y="5" width="20" height="40" as="geometry" />
        </mxCell>
        <mxCell id="WUNCd0-92xWAUX9Z6t9p-106" value="&lt;u&gt;&lt;b&gt;j&lt;/b&gt;&lt;/u&gt;ump and &lt;u&gt;&lt;b&gt;l&lt;/b&gt;&lt;/u&gt;ink" style="text;html=1;align=center;verticalAlign=middle;resizable=0;points=[];autosize=1;strokeColor=none;fillColor=none;" vertex="1" parent="WUNCd0-92xWAUX9Z6t9p-107">
          <mxGeometry y="11.5" width="100" height="30" as="geometry" />
        </mxCell>
        <mxCell id="WUNCd0-92xWAUX9Z6t9p-108" value="其他指令" style="rounded=0;whiteSpace=wrap;html=1;fillColor=#d5e8d4;strokeColor=#82b366;" vertex="1" parent="1">
          <mxGeometry x="528" y="670" width="120" height="40" as="geometry" />
        </mxCell>
        <mxCell id="WUNCd0-92xWAUX9Z6t9p-109" value="&lt;b&gt;&lt;u&gt;fence&lt;/u&gt;&lt;/b&gt; loads &amp;amp; stroes" style="text;html=1;align=center;verticalAlign=middle;resizable=0;points=[];autosize=1;strokeColor=none;fillColor=none;" vertex="1" parent="1">
          <mxGeometry x="493" y="760" width="130" height="30" as="geometry" />
        </mxCell>
        <mxCell id="WUNCd0-92xWAUX9Z6t9p-110" value="&lt;b&gt;&lt;u&gt;fence&lt;/u&gt;&lt;/b&gt;.instuction &amp;amp; data" style="text;html=1;align=center;verticalAlign=middle;resizable=0;points=[];autosize=1;strokeColor=none;fillColor=none;" vertex="1" parent="1">
          <mxGeometry x="488" y="798" width="150" height="30" as="geometry" />
        </mxCell>
        <mxCell id="WUNCd0-92xWAUX9Z6t9p-117" value="" style="group" vertex="1" connectable="0" parent="1">
          <mxGeometry x="475" y="850" width="173" height="53.5" as="geometry" />
        </mxCell>
        <mxCell id="WUNCd0-92xWAUX9Z6t9p-111" value="&lt;b&gt;&lt;u&gt;e&lt;/u&gt;&lt;/b&gt;nvironment" style="text;html=1;align=center;verticalAlign=middle;resizable=0;points=[];autosize=1;strokeColor=none;fillColor=none;" vertex="1" parent="WUNCd0-92xWAUX9Z6t9p-117">
          <mxGeometry y="13" width="90" height="30" as="geometry" />
        </mxCell>
        <mxCell id="WUNCd0-92xWAUX9Z6t9p-113" value="" style="shape=curlyBracket;whiteSpace=wrap;html=1;rounded=1;" vertex="1" parent="WUNCd0-92xWAUX9Z6t9p-117">
          <mxGeometry x="85" y="5" width="20" height="40" as="geometry" />
        </mxCell>
        <mxCell id="WUNCd0-92xWAUX9Z6t9p-114" value="&lt;b&gt;&lt;u&gt;break&lt;/u&gt;&lt;/b&gt;" style="text;html=1;align=center;verticalAlign=middle;resizable=0;points=[];autosize=1;strokeColor=none;fillColor=none;" vertex="1" parent="WUNCd0-92xWAUX9Z6t9p-117">
          <mxGeometry x="96" width="60" height="30" as="geometry" />
        </mxCell>
        <mxCell id="WUNCd0-92xWAUX9Z6t9p-115" value="&lt;u&gt;&lt;b&gt;call&lt;/b&gt;&lt;/u&gt;" style="text;html=1;align=center;verticalAlign=middle;resizable=0;points=[];autosize=1;strokeColor=none;fillColor=none;" vertex="1" parent="WUNCd0-92xWAUX9Z6t9p-117">
          <mxGeometry x="105" y="23.5" width="40" height="30" as="geometry" />
        </mxCell>
        <mxCell id="WUNCd0-92xWAUX9Z6t9p-116" value="" style="shape=curlyBracket;whiteSpace=wrap;html=1;rounded=1;direction=west;" vertex="1" parent="WUNCd0-92xWAUX9Z6t9p-117">
          <mxGeometry x="153" y="5" width="20" height="40" as="geometry" />
        </mxCell>
        <mxCell id="WUNCd0-92xWAUX9Z6t9p-137" value="" style="group" vertex="1" connectable="0" parent="1">
          <mxGeometry x="368" y="930" width="422" height="89" as="geometry" />
        </mxCell>
        <mxCell id="WUNCd0-92xWAUX9Z6t9p-125" value="&lt;b&gt;&lt;u&gt;s&lt;/u&gt;&lt;/b&gt;hift &lt;u style=&quot;font-weight: bold;&quot;&gt;r&lt;/u&gt;ight&amp;nbsp;&lt;b&gt;&lt;u&gt;l&lt;/u&gt;&lt;/b&gt;ogical" style="text;html=1;align=center;verticalAlign=middle;resizable=0;points=[];autosize=1;strokeColor=none;fillColor=none;" vertex="1" parent="WUNCd0-92xWAUX9Z6t9p-137">
          <mxGeometry x="155" y="59" width="110" height="30" as="geometry" />
        </mxCell>
        <mxCell id="WUNCd0-92xWAUX9Z6t9p-126" value="" style="group" vertex="1" connectable="0" parent="WUNCd0-92xWAUX9Z6t9p-137">
          <mxGeometry x="140" width="282" height="82" as="geometry" />
        </mxCell>
        <mxCell id="WUNCd0-92xWAUX9Z6t9p-127" value="" style="shape=curlyBracket;whiteSpace=wrap;html=1;rounded=1;" vertex="1" parent="WUNCd0-92xWAUX9Z6t9p-126">
          <mxGeometry y="2" width="20" height="80" as="geometry" />
        </mxCell>
        <mxCell id="WUNCd0-92xWAUX9Z6t9p-128" value="&lt;b&gt;&lt;u&gt;s&lt;/u&gt;&lt;/b&gt;hift &lt;u&gt;&lt;b&gt;l&lt;/b&gt;&lt;/u&gt;eft &lt;b&gt;&lt;u&gt;l&lt;/u&gt;&lt;/b&gt;ogical" style="text;html=1;align=center;verticalAlign=middle;resizable=0;points=[];autosize=1;strokeColor=none;fillColor=none;" vertex="1" parent="WUNCd0-92xWAUX9Z6t9p-126">
          <mxGeometry x="15" width="100" height="30" as="geometry" />
        </mxCell>
        <mxCell id="WUNCd0-92xWAUX9Z6t9p-129" value="&lt;u&gt;s&lt;/u&gt;hift &lt;u&gt;&lt;b&gt;r&lt;/b&gt;&lt;/u&gt;ight &lt;b&gt;&lt;u&gt;a&lt;/u&gt;&lt;/b&gt;rithmetic" style="text;html=1;align=center;verticalAlign=middle;resizable=0;points=[];autosize=1;strokeColor=none;fillColor=none;" vertex="1" parent="WUNCd0-92xWAUX9Z6t9p-126">
          <mxGeometry x="15" y="27.5" width="130" height="30" as="geometry" />
        </mxCell>
        <mxCell id="WUNCd0-92xWAUX9Z6t9p-130" value="" style="shape=curlyBracket;whiteSpace=wrap;html=1;rounded=1;direction=west;" vertex="1" parent="WUNCd0-92xWAUX9Z6t9p-126">
          <mxGeometry x="140" y="2" width="20" height="80" as="geometry" />
        </mxCell>
        <mxCell id="WUNCd0-92xWAUX9Z6t9p-131" value="" style="group" vertex="1" connectable="0" parent="WUNCd0-92xWAUX9Z6t9p-126">
          <mxGeometry x="162" y="17" width="120" height="45" as="geometry" />
        </mxCell>
        <mxCell id="WUNCd0-92xWAUX9Z6t9p-132" value="" style="shape=curlyBracket;whiteSpace=wrap;html=1;rounded=1;" vertex="1" parent="WUNCd0-92xWAUX9Z6t9p-131">
          <mxGeometry y="5" width="20" height="40" as="geometry" />
        </mxCell>
        <mxCell id="WUNCd0-92xWAUX9Z6t9p-133" value="-" style="text;html=1;align=center;verticalAlign=middle;resizable=0;points=[];autosize=1;strokeColor=none;fillColor=none;" vertex="1" parent="WUNCd0-92xWAUX9Z6t9p-131">
          <mxGeometry x="15" width="30" height="30" as="geometry" />
        </mxCell>
        <mxCell id="WUNCd0-92xWAUX9Z6t9p-134" value="&lt;u&gt;i&lt;/u&gt;mmediate" style="text;html=1;align=center;verticalAlign=middle;resizable=0;points=[];autosize=1;strokeColor=none;fillColor=none;" vertex="1" parent="WUNCd0-92xWAUX9Z6t9p-131">
          <mxGeometry x="15" y="15" width="80" height="30" as="geometry" />
        </mxCell>
        <mxCell id="WUNCd0-92xWAUX9Z6t9p-135" value="" style="shape=curlyBracket;whiteSpace=wrap;html=1;rounded=1;direction=west;" vertex="1" parent="WUNCd0-92xWAUX9Z6t9p-131">
          <mxGeometry x="100" y="5" width="20" height="40" as="geometry" />
        </mxCell>
        <mxCell id="WUNCd0-92xWAUX9Z6t9p-136" value="&lt;b&gt;&lt;u&gt;c&lt;/u&gt;&lt;/b&gt;ontrol &lt;b&gt;&lt;u&gt;s&lt;/u&gt;&lt;/b&gt;tatus &lt;b&gt;&lt;u&gt;r&lt;/u&gt;&lt;/b&gt;egister" style="text;html=1;align=center;verticalAlign=middle;resizable=0;points=[];autosize=1;strokeColor=none;fillColor=none;" vertex="1" parent="WUNCd0-92xWAUX9Z6t9p-137">
          <mxGeometry y="25" width="140" height="30" as="geometry" />
        </mxCell>
      </root>
    </mxGraphModel>
  </diagram>
</mxfile>
